<svg xmlns="http://www.w3.org/2000/svg" xmlns:xlink="http://www.w3.org/1999/xlink" xml:lang="en" height="81.2pt" width="81.2pt" viewBox="-4.6 -40.6 81.2 81.2"><path d="M 0.0,36.0 L 72,36 L 72,-36 L 0,-36 L 0,36" style="stroke:#D55E00;fill:none;stroke-width:2.0;stroke-dasharray:-;stroke-linecap:round;stroke-linejoin:round;" /><path d="M 0.0,-18.0 L 16.2,-18" style="stroke:#D55E00;fill:none;stroke-width:1.0;stroke-dasharray:-;stroke-linecap:round;stroke-linejoin:round;" /><path d="M 55.800000000000004,-18.0 L 72,-18" style="stroke:#D55E00;fill:none;stroke-width:1.0;stroke-dasharray:-;stroke-linecap:round;stroke-linejoin:round;" /><path d="M 0.0,18.0 L 16.2,18" style="stroke:#D55E00;fill:none;stroke-width:1.0;stroke-dasharray:-;stroke-linecap:round;stroke-linejoin:round;" /><path d="M 55.800000000000004,18.0 L 72,18" style="stroke:#D55E00;fill:none;stroke-width:1.0;stroke-dasharray:-;stroke-linecap:round;stroke-linejoin:round;" /><g><g><g><path d="M 30.049 3.74 L 30.049 3.74 Q 29.125 3.74 28.416 3.284 Q 27.706 2.827 27.305 1.98 Q 26.903 1.133 26.903 -0.033 Q 26.903 -1.188 27.305 -2.018 Q 27.706 -2.849 28.416 -3.294 Q 29.125 -3.74 30.049 -3.74 Q 30.984 -3.74 31.694 -3.294 Q 32.403 -2.849 32.805 -2.018 Q 33.206 -1.188 33.206 -0.033 Q 33.206 1.122 32.805 1.969 Q 32.403 2.816 31.694 3.278 Q 30.984 3.74 30.049 3.74 Z M 30.049 2.915 L 30.049 2.915 Q 30.709 2.915 31.199 2.552 Q 31.688 2.189 31.957 1.524 Q 32.227 0.858 32.227 -0.033 Q 32.227 -1.375 31.633 -2.15 Q 31.039 -2.926 30.049 -2.926 Q 29.059 -2.926 28.465 -2.15 Q 27.871 -1.375 27.871 -0.033 Q 27.871 0.858 28.14 1.524 Q 28.41 2.189 28.899 2.552 Q 29.389 2.915 30.049 2.915 Z " fill="#D55E00" /><path d="M 34.801 3.608 L 34.801 3.608 L 34.801 -3.619 L 36.913 -3.619 Q 37.738 -3.619 38.36 -3.415 Q 38.981 -3.212 39.333 -2.75 Q 39.685 -2.288 39.685 -1.496 Q 39.685 -0.726 39.339 -0.225 Q 38.992 0.275 38.382 0.517 Q 37.771 0.759 36.957 0.759 L 35.747 0.759 L 35.747 3.608 Z M 35.747 -0.011 L 35.747 -0.011 L 36.847 -0.011 Q 37.804 -0.011 38.272 -0.363 Q 38.739 -0.715 38.739 -1.485 Q 38.739 -2.266 38.255 -2.563 Q 37.771 -2.86 36.803 -2.86 L 35.747 -2.86 Z " fill="#D55E00" /><path d="M 40.213 3.608 L 40.213 3.608 L 42.71 -3.619 L 43.766 -3.619 L 46.263 3.608 L 45.262 3.608 L 44.569 1.419 L 41.874 1.419 L 41.17 3.608 Z M 42.116 0.682 L 42.116 0.682 L 44.338 0.682 L 43.986 -0.418 Q 43.777 -1.023 43.601 -1.622 Q 43.425 -2.222 43.238 -2.849 L 43.194 -2.849 Q 43.018 -2.222 42.842 -1.622 Q 42.666 -1.023 42.468 -0.418 Z " fill="#D55E00" /></g></g></g></svg>