<svg xmlns="http://www.w3.org/2000/svg" xmlns:xlink="http://www.w3.org/1999/xlink" xml:lang="en" height="60.302pt" width="45.2pt" viewBox="-22.6 -37.702 45.2 60.302"><path d="M -3.2399999999999998,18.0 L 3.24,18 L 3.24,-18 L -3.24,-18 L -3.24,18" style="stroke:#D55E00;fill:none;stroke-width:2.0;stroke-dasharray:-;stroke-linecap:round;stroke-linejoin:round;" /><path d="M -18.0,-0.0 L -3.24,-0" style="stroke:#D55E00;fill:none;stroke-width:1.0;stroke-dasharray:-;stroke-linecap:round;stroke-linejoin:round;" /><path d="M 3.2399999999999998,-0.0 L 18,-0" style="stroke:#D55E00;fill:none;stroke-width:1.0;stroke-dasharray:-;stroke-linecap:round;stroke-linejoin:round;" /><g><g><g><path d="M -3.595 -28.152 L -3.595 -28.152 Q -3.442 -27.333 -3.352 -26.568 Q -3.262 -25.803 -3.118 -25.056 Q -3.001 -24.489 -2.817 -24.111 Q -2.632 -23.733 -2.317 -23.733 Q -2.11 -23.733 -1.971 -23.809 Q -1.831 -23.886 -1.696 -24.057 L -1.543 -23.958 Q -1.687 -23.58 -1.953 -23.305 Q -2.218 -23.031 -2.578 -23.031 Q -2.947 -23.031 -3.159 -23.323 Q -3.37 -23.616 -3.469 -24.129 Q -3.586 -24.741 -3.613 -25.344 Q -3.64 -25.947 -3.712 -26.595 L -3.757 -26.595 Q -3.82 -26.478 -3.951 -26.172 Q -4.081 -25.866 -4.252 -25.461 Q -4.423 -25.056 -4.599 -24.619 Q -4.774 -24.183 -4.932 -23.791 Q -5.089 -23.4 -5.197 -23.13 L -6.07 -23.13 L -6.097 -23.274 Q -5.755 -23.904 -5.377 -24.619 Q -4.999 -25.335 -4.617 -26.055 Q -4.234 -26.775 -3.901 -27.405 Q -3.91 -27.549 -3.924 -27.616 Q -3.937 -27.684 -3.973 -27.891 Q -4.054 -28.314 -4.248 -28.575 Q -4.441 -28.836 -4.729 -28.836 Q -5.107 -28.836 -5.368 -28.485 L -5.521 -28.557 Q -5.359 -28.962 -5.13 -29.223 Q -4.9 -29.484 -4.486 -29.484 Q -4.18 -29.484 -4.014 -29.3 Q -3.847 -29.115 -3.757 -28.813 Q -3.667 -28.512 -3.595 -28.152 Z " fill="#D55E00" /><path d="M 1.481 -29.511 L 1.481 -29.511 L -0.859 -22.329 L -1.363 -22.329 L 0.986 -29.511 Z " fill="#D55E00" /><path d="M 2.164 -23.13 L 2.164 -23.13 L 2.164 -23.58 Q 3.046 -24.426 3.659 -25.065 Q 4.271 -25.704 4.595 -26.217 Q 4.918 -26.73 4.918 -27.189 Q 4.918 -27.675 4.644 -27.981 Q 4.37 -28.287 3.811 -28.287 Q 3.442 -28.287 3.132 -28.093 Q 2.821 -27.9 2.56 -27.612 L 2.128 -28.035 Q 2.497 -28.431 2.916 -28.665 Q 3.334 -28.899 3.901 -28.899 Q 4.72 -28.899 5.193 -28.44 Q 5.665 -27.981 5.665 -27.225 Q 5.665 -26.703 5.355 -26.163 Q 5.045 -25.623 4.505 -25.024 Q 3.964 -24.426 3.271 -23.733 Q 3.505 -23.751 3.766 -23.764 Q 4.027 -23.778 4.252 -23.778 L 5.954 -23.778 L 5.954 -23.13 Z " fill="#D55E00" /></g></g></g></svg>